# xmcd
#
# Track frame offsets:
#	150
#	181125
#	234150
#
# Disc length: 3352 seconds
#
# Revision: 0
# Processed by: cddbd v1.5.2PL0 Copyright (c) Steve Scherf et al.
# Submitted via: EasyCDDAExtractor 16.0.6.1
#
DISCID=160d1603
DTITLE=Χορός Αγιορειτών πατέρων - Άγιον Όρος 1000 χρόνια 07
DYEAR=2012
DGENRE=Βυζ. Εκκλησιαστική
TTITLE0=Αγρ. κ Παν. Τιμ. Ζ.-Το πρόσωπόν Σου-Τριάς Υπερούσιε-Και νυν Θεοτόκε Πα
TTITLE0=νύμνητε [πλ. δ']
TTITLE1=Αγρ. κ Παν. Τιμ. Ζ.-Αργόν ''Πάσα πνοή'' μετά κρατήματος [α']
TTITLE2=Αγρ. κ Παν. Τιμ. Ζ.-Δόξα Πατρί ...Ζώνης [β']-Και νυν [β']-Ελέησόν με ο
TTITLE2=Θ., Παντάνασσα Δέσπ.[β']
EXTD=
EXTT0=
EXTT1=
EXTT2=
PLAYORDER=
